<?xml version="1.0" standalone="no"?>
<!DOCTYPE svg PUBLIC "-//W3C//DTD SVG 20010904//EN"
 "http://www.w3.org/TR/2001/REC-SVG-20010904/DTD/svg10.dtd">
<svg version="1.0" xmlns="http://www.w3.org/2000/svg"
 width="640.000000pt" height="640.000000pt" viewBox="0 0 640.000000 640.000000"
 preserveAspectRatio="xMidYMid meet">
<metadata>
Created by potrace 1.11, written by Peter Selinger 2001-2013
</metadata>
<g transform="translate(0.000000,640.000000) scale(0.100000,-0.100000)"
fill="#000000" stroke="none">
<path d="M3122 6077 c-44 -89 -252 -508 -462 -932 -359 -727 -443 -896 -446
-903 -1 -2 -46 -10 -100 -18 -118 -17 -90 -13 -444 -64 -157 -23 -296 -43
-310 -45 -38 -6 -181 -26 -220 -31 -19 -3 -60 -9 -90 -14 -30 -5 -73 -11 -95
-14 -32 -4 -238 -33 -355 -51 -14 -2 -50 -7 -80 -11 -30 -4 -57 -8 -60 -9 -3
-1 -32 -4 -65 -9 -33 -4 -114 -16 -180 -26 -66 -10 -142 -21 -168 -25 l-48 -6
74 -72 c68 -66 552 -538 852 -832 67 -66 247 -241 399 -390 181 -176 275 -274
272 -285 -3 -8 -7 -31 -10 -50 -3 -19 -22 -127 -41 -240 -20 -113 -47 -270
-61 -350 -14 -80 -27 -158 -30 -175 -3 -16 -9 -52 -14 -80 -5 -27 -32 -183
-60 -345 -29 -162 -54 -308 -56 -325 -5 -30 -51 -298 -60 -345 -2 -14 -7 -41
-10 -60 -3 -19 -12 -70 -20 -114 -18 -98 -18 -97 4 -88 23 9 652 338 847 442
39 21 125 66 193 101 68 35 158 82 200 104 42 22 149 78 237 124 88 46 183 96
210 111 28 15 100 53 161 85 l111 58 84 -45 c46 -25 127 -68 179 -95 52 -28
183 -96 290 -153 107 -56 231 -122 275 -145 44 -23 125 -66 180 -95 146 -76
469 -247 550 -290 39 -20 129 -68 200 -105 72 -38 149 -79 173 -91 23 -13 42
-21 42 -17 0 3 -9 60 -20 127 -12 67 -23 132 -25 146 -7 42 -36 213 -41 240
-2 14 -13 77 -24 140 -11 63 -21 126 -24 140 -3 14 -12 68 -20 120 -9 52 -18
106 -21 120 -2 14 -11 68 -20 120 -8 52 -17 106 -20 120 -2 14 -16 93 -30 175
-14 83 -27 160 -29 171 -3 12 -7 39 -10 60 -4 22 -11 64 -16 94 -5 30 -12 69
-14 85 -3 17 -17 100 -32 184 l-26 155 140 135 c138 134 567 551 872 847 85
83 196 191 245 239 218 211 342 335 336 336 -3 0 -15 2 -26 5 -11 2 -40 6 -65
9 -25 4 -70 10 -100 15 -30 5 -75 12 -100 15 -25 3 -56 8 -70 10 -32 6 -66 11
-165 25 -110 15 -400 57 -515 75 -52 8 -111 16 -130 19 -19 2 -66 9 -105 15
-79 12 -331 49 -385 56 -19 3 -46 7 -60 10 -14 2 -41 6 -60 9 -50 6 -192 28
-210 31 -9 2 -60 9 -113 16 l-97 12 -64 131 c-35 72 -164 334 -286 581 -122
248 -268 545 -325 660 -57 116 -150 306 -208 422 l-105 213 -80 -163z"/>
</g>
</svg>
